<svg xmlns="http://www.w3.org/2000/svg" width="1200" height="630" viewBox="0 0 1200 630" role="img" aria-labelledby="t d"><title id="t">Dalecarlia Rebels — Varje styrka har en position</title><desc id="d">En marinblå, klarblå och vit planillustration för Dalecarlia Rebels.</desc><rect width="1200" height="630" fill="#16254f"/><g opacity=".12" stroke="#fff"><path d="M0 105h1200M0 210h1200M0 315h1200M0 420h1200M0 525h1200M200 0v630M400 0v630M600 0v630M800 0v630M1000 0v630"/></g><path d="M760 550C845 490 820 400 900 350s90-150 190-245" fill="none" stroke="#315fae" stroke-width="14" stroke-linecap="round"/><path d="M760 550C845 520 900 455 935 390s75-175 155-285" fill="none" stroke="#dfe6f0" stroke-width="7" stroke-dasharray="14 12"/><circle cx="1090" cy="105" r="22" fill="#dfe6f0"/><path d="M90 80h120v70c0 48-23 78-60 94-37-16-60-46-60-94V80Z" fill="#315fae"/><path d="M118 112h64M124 135h52M132 158h36" stroke="#ffffff" stroke-width="8" stroke-linecap="round"/><path d="M150 96v85" stroke="#dfe6f0" stroke-width="5" stroke-dasharray="5 7"/><text x="85" y="330" fill="#ffffff" font-family="Arial Narrow,Arial,sans-serif" font-size="84" font-weight="900">VARJE STYRKA</text><text x="85" y="420" fill="#315fae" font-family="Arial Narrow,Arial,sans-serif" font-size="84" font-weight="900">HAR EN POSITION.</text><text x="90" y="500" fill="#dfe6f0" font-family="monospace" font-size="24" letter-spacing="4">DALECARLIA REBELS · AMERIKANSK FOTBOLL I DALARNA</text></svg>